<svg width="48" height="48" viewBox="0 0 48 48" fill="none" xmlns="http://www.w3.org/2000/svg">
    <mask id="mask0_460_46" style="mask-type:alpha" maskUnits="userSpaceOnUse" x="0" y="0"
        width="48" height="48">
        <rect width="48" height="48" fill="#D9D9D9" />
    </mask>
    <g mask="url(#mask0_460_46)">
        <path
            d="M23.9755 44.0502C23.5585 44.0502 23.1235 43.9752 22.6705 43.8252C22.2175 43.6752 21.8273 43.4502 21.5 43.1502C19.9 41.8169 18.2333 40.3085 16.5 38.6252C14.7667 36.9419 13.175 35.1252 11.725 33.1752C10.275 31.2252 9.08333 29.1585 8.15 26.9752C7.21667 24.7919 6.75 22.5502 6.75 20.2502C6.75 14.9262 8.4875 10.6702 11.9625 7.4822C15.4378 4.2942 19.4503 2.7002 24 2.7002C28.5497 2.7002 32.5705 4.2942 36.0625 7.4822C39.5542 10.6702 41.3 14.9262 41.3 20.2502C41.3 22.5502 40.825 24.7919 39.875 26.9752C38.925 29.1585 37.725 31.2252 36.275 33.1752C34.825 35.1252 33.2333 36.9419 31.5 38.6252C29.7667 40.3085 28.1167 41.8169 26.55 43.1502C26.1847 43.4502 25.7685 43.6752 25.3015 43.8252C24.8345 43.9752 24.3925 44.0502 23.9755 44.0502ZM24.0045 23.8502C25.1015 23.8502 26.025 23.482 26.775 22.7457C27.525 22.0094 27.9 21.0927 27.9 19.9957C27.9 18.8987 27.5235 17.9752 26.7705 17.2252C26.0175 16.4752 25.0925 16.1002 23.9955 16.1002C22.8985 16.1002 21.9833 16.4767 21.25 17.2297C20.5167 17.9827 20.15 18.9077 20.15 20.0047C20.15 21.1017 20.5182 22.0169 21.2545 22.7502C21.9908 23.4835 22.9075 23.8502 24.0045 23.8502Z"
            fill="black" />
    </g>
</svg>    