<svg width="300" height="300" viewBox="0 0 300 300" fill="none" xmlns="http://www.w3.org/2000/svg">
    <rect width="300" height="300" rx="48" fill="#F6F1E9" />
    <path
        d="M134.912 80.056C134.464 84.872 134.128 89.52 133.904 94C133.792 98.48 133.736 101.896 133.736 104.248C133.736 106.824 133.792 109.232 133.904 111.472C134.016 113.712 134.128 115.672 134.24 117.352H130.376C129.144 108.952 127.464 102.344 125.336 97.528C123.208 92.6 120.352 89.128 116.768 87.112C113.184 84.984 108.424 83.92 102.488 83.92H95.264C91.904 83.92 89.328 84.2 87.536 84.76C85.744 85.32 84.512 86.496 83.84 88.288C83.28 90.08 83 92.824 83 96.52V180.52C83 184.776 83.448 187.968 84.344 190.096C85.24 192.224 86.976 193.624 89.552 194.296C92.128 194.968 95.824 195.36 100.64 195.472V199C97.392 198.776 93.192 198.664 88.04 198.664C82.888 198.552 77.568 198.496 72.08 198.496C67.376 198.496 62.84 198.552 58.472 198.664C54.104 198.664 50.296 198.776 47.048 199V195.64C50.744 195.416 53.488 194.968 55.28 194.296C57.184 193.624 58.416 192.28 58.976 190.264C59.648 188.248 59.984 185.224 59.984 181.192V97.864C59.984 93.72 59.648 90.696 58.976 88.792C58.416 86.776 57.184 85.432 55.28 84.76C53.488 83.976 50.744 83.528 47.048 83.416V80.056C51.528 80.168 56.232 80.28 61.16 80.392C66.2 80.392 71.128 80.448 75.944 80.56C80.872 80.56 85.408 80.56 89.552 80.56C93.808 80.56 97.224 80.56 99.8 80.56C104.952 80.56 110.776 80.56 117.272 80.56C123.88 80.448 129.76 80.28 134.912 80.056ZM109.544 138.52C109.544 138.52 109.544 139.08 109.544 140.2C109.544 141.32 109.544 141.88 109.544 141.88H77.96C77.96 141.88 77.96 141.32 77.96 140.2C77.96 139.08 77.96 138.52 77.96 138.52H109.544ZM113.408 116.344C112.96 122.728 112.736 127.6 112.736 130.96C112.848 134.32 112.904 137.4 112.904 140.2C112.904 143 112.96 146.08 113.072 149.44C113.184 152.8 113.464 157.672 113.912 164.056H110.048C109.6 160.248 108.76 156.664 107.528 153.304C106.296 149.832 104.392 147.088 101.816 145.072C99.352 142.944 95.768 141.88 91.064 141.88V138.52C94.536 138.52 97.392 137.792 99.632 136.336C101.872 134.88 103.608 133.032 104.84 130.792C106.184 128.44 107.192 126.032 107.864 123.568C108.648 120.992 109.208 118.584 109.544 116.344H113.408ZM254.353 80.056V83.416C250.769 83.752 248.025 84.592 246.121 85.936C244.217 87.168 242.929 89.184 242.257 91.984C241.697 94.672 241.417 98.536 241.417 103.576V199.504C240.409 199.392 239.289 199.336 238.057 199.336C236.937 199.336 235.705 199.392 234.361 199.504L162.289 101.56V174.136C162.289 179.512 162.625 183.712 163.297 186.736C163.969 189.648 165.425 191.776 167.665 193.12C170.017 194.352 173.545 195.192 178.249 195.64V199C176.121 198.776 173.377 198.664 170.017 198.664C166.657 198.552 163.465 198.496 160.441 198.496C157.753 198.496 155.009 198.552 152.209 198.664C149.521 198.664 147.281 198.776 145.489 199V195.64C149.185 195.192 151.929 194.352 153.721 193.12C155.625 191.888 156.857 189.872 157.417 187.072C158.089 184.272 158.425 180.408 158.425 175.48V97.864C158.425 93.72 158.089 90.696 157.417 88.792C156.857 86.776 155.625 85.432 153.721 84.76C151.929 83.976 149.185 83.528 145.489 83.416V80.056C147.281 80.168 149.521 80.28 152.209 80.392C155.009 80.504 157.753 80.56 160.441 80.56C163.017 80.56 165.537 80.504 168.001 80.392C170.465 80.28 172.649 80.168 174.553 80.056L237.553 163.888V104.92C237.553 99.432 237.217 95.232 236.545 92.32C235.873 89.408 234.417 87.28 232.177 85.936C229.937 84.592 226.409 83.752 221.593 83.416V80.056C223.721 80.168 226.465 80.28 229.825 80.392C233.297 80.504 236.489 80.56 239.401 80.56C242.201 80.56 244.945 80.504 247.633 80.392C250.433 80.28 252.673 80.168 254.353 80.056Z"
        fill="black" />
    <rect x="46" y="234" width="209" height="30" rx="10" fill="#CADFD1" />
</svg>
    